<?xml version="1.0" encoding="UTF-8" standalone="no"?>
<svg
   xmlns:dc="http://purl.org/dc/elements/1.1/"
   xmlns:cc="http://creativecommons.org/ns#"
   xmlns:rdf="http://www.w3.org/1999/02/22-rdf-syntax-ns#"
   xmlns:svg="http://www.w3.org/2000/svg"
   xmlns="http://www.w3.org/2000/svg"
   xmlns:sodipodi="http://sodipodi.sourceforge.net/DTD/sodipodi-0.dtd"
   xmlns:inkscape="http://www.inkscape.org/namespaces/inkscape"
   width="24"
   height="24.004"
   viewBox="0 0 24 24.004"
   version="1.1"
   id="svg3"
   sodipodi:docname="Icon awesome-search.svg"
   inkscape:version="1.0.1 (3bc2e813f5, 2020-09-07)">
  <metadata
     id="metadata9">
    <rdf:RDF>
      <cc:Work
         rdf:about="">
        <dc:format>image/svg+xml</dc:format>
        <dc:type
           rdf:resource="http://purl.org/dc/dcmitype/StillImage" />
        <dc:title></dc:title>
      </cc:Work>
    </rdf:RDF>
  </metadata>
  <defs
     id="defs7" />
  <sodipodi:namedview
     pagecolor="#ffffff"
     bordercolor="#666666"
     borderopacity="1"
     objecttolerance="10"
     gridtolerance="10"
     guidetolerance="10"
     inkscape:pageopacity="0"
     inkscape:pageshadow="2"
     inkscape:window-width="2400"
     inkscape:window-height="1271"
     id="namedview5"
     showgrid="true"
     inkscape:zoom="34.577571"
     inkscape:cx="12"
     inkscape:cy="12.002"
     inkscape:window-x="-9"
     inkscape:window-y="-9"
     inkscape:window-maximized="1"
     inkscape:current-layer="svg3">
    <inkscape:grid
       type="xygrid"
       id="grid834" />
  </sodipodi:namedview>
  <path
     id="Icon_awesome-search"
     data-name="Icon awesome-search"
     d="m 22.730755,20.046171 -4.29626,-4.296259 A 1.0331612,1.0331612 0 0 0 17.699149,15.44842 H 16.996894 A 8.9583535,8.9583535 0 1 0 15.445314,17 v 0.699498 a 1.0331612,1.0331612 0 0 0 0.301492,0.735346 l 4.296259,4.296259 a 1.0294845,1.0294845 0 0 0 1.460581,0 l 1.219755,-1.219755 a 1.0386763,1.0386763 0 0 0 0.0074,-1.465177 z M 9.9329757,15.450258 A 5.5150955,5.5150955 0 1 1 15.448071,9.9351626 5.5150955,5.5150955 0 0 1 9.9329757,15.44842 Z"
     fill="#fff"
     style="fill:#ffffff;fill-opacity:1;stroke-width:0.919183" />
</svg>
